# xmcd CD database file
#
# Track frame offsets:
#	150
#	21454
#	41870
#	62289
#	82716
#
# Disc length: 1384 seconds
#
# Revision: 1
# Processed by: cddbd v1.5.2PL0 Copyright (c) Steve Scherf et al.
# Submitted via: CDex 1.70beta2
#
DISCID=33056605
DTITLE=エクリップス - Running on
DYEAR=2009
DGENRE=Soundtrack
TTITLE0=Running on
TTITLE1=ルージュ (戸松　遥) - nO limiT
TTITLE2=シトロン (中島　愛) - nO limiT
TTITLE3=ヴィオレット (早見沙織) - nO limiT
TTITLE4=Running on (off vocal version)
EXTD=YEAR: 2009
EXTT0=
EXTT1=
EXTT2=
EXTT3=
EXTT4=
PLAYORDER=
